<svg xmlns="http://www.w3.org/2000/svg" width="2765" height="387" viewBox="0 0 2765 387">
  <g id="logo" transform="translate(297 121.87)">
    <text id="silicon_loops" data-name="silicon loops" transform="translate(121 185.13)" fill="#a8dadc" font-size="317" font-family="Montserrat-ExtraBold, Montserrat" font-weight="800" letter-spacing="0.065em"><tspan x="0" y="0">silicon loops</tspan></text>
    <g id="infinitesvg" transform="translate(-297 -6.393)">
      <path id="Path_187" data-name="Path 187" d="M261.737,155.5,256,161.831l15,38.141,23.437,20.694,16.845-20.489L301,170.042l-26.412-26.534A104.953,104.953,0,0,0,261.737,155.5Z" transform="translate(-76 -122.419)" fill="#cc2c2c"/>
      <path id="Path_188" data-name="Path 188" d="M308.127,191.207c6.678-7.37,14.726-11.109,23.924-11.109,13.14,0,33.986,9.054,33.986,33.347s-20.846,33.347-33.985,33.347c-9.2,0-17.247-3.738-23.924-11.108l-16.857-23.993-38.438-58.835-7.5,68.071,7.5,53.106,5.737,6.333a99.13,99.13,0,0,0,53.182,30.965,102.058,102.058,0,0,0,102.435-39.338,101.244,101.244,0,0,0,0-117.1,102.061,102.061,0,0,0-102.435-39.338,97.478,97.478,0,0,0-40.331,18.975Z" transform="translate(-72.833 -113.445)" fill="#fc3636"/>
      <g id="Group_14" data-name="Group 14" transform="translate(0 0)">
        <path id="Path_189" data-name="Path 189" d="M226.922,323.668l5.737-6.333-15-38.141L194.221,258.5l-16.845,20.489,10.282,30.135,26.412,26.533A104.9,104.9,0,0,0,226.922,323.668Z" transform="translate(-52.659 -156.746)" fill="#fc3636"/>
        <path id="Path_190" data-name="Path 190" d="M124.706,235.683c-6.678,7.37-14.726,11.109-23.924,11.109-13.14,0-33.986-9.054-33.986-33.347S87.642,180.1,100.782,180.1c9.2,0,17.247,3.738,23.924,11.108L141.562,215.2,180,274.033V152.856l-5.737-6.333a99.13,99.13,0,0,0-53.182-30.965A102.057,102.057,0,0,0,18.646,154.9a101.242,101.242,0,0,0,0,117.1A102.061,102.061,0,0,0,121.081,311.33a97.477,97.477,0,0,0,40.331-18.975Z" transform="translate(0 -113.445)" fill="#fc5b3f"/>
      </g>
    </g>
  </g>
</svg>
