<svg id="facebook" xmlns="http://www.w3.org/2000/svg" width="24.699" height="25.011" viewBox="0 0 24.699 25.011">
  <defs>
    <style>
      .cls-1 {
        fill: #a8dadc;
      }
    </style>
  </defs>
  <g id="Group_1" data-name="Group 1" transform="translate(0)">
    <path id="Path_63" data-name="Path 63" class="cls-1" d="M21.8,0H2.894A2.916,2.916,0,0,0,0,2.931V22.08a2.916,2.916,0,0,0,2.894,2.931H21.8A2.916,2.916,0,0,0,24.7,22.08V2.931A2.916,2.916,0,0,0,21.8,0Zm.965,22.08a.972.972,0,0,1-.965.977H16.3V15.094h2.981l.493-3.029H16.3v-2.1A1.432,1.432,0,0,1,17.752,8.5H19.73V5.471H17.752a4.466,4.466,0,0,0-4.437,4.5v2.092h-2.9v3.029h2.9v7.962H2.894a.972.972,0,0,1-.965-.977V2.931a.972.972,0,0,1,.965-.977H21.8a.972.972,0,0,1,.965.977Z" transform="translate(0)"/>
  </g>
</svg>
