<svg height="512pt" viewBox="0 -18 512 512" width="512pt" xmlns="http://www.w3.org/2000/svg"><path d="m406.96875 0h-206.226562c-41.8125 0-77.992188 24.5625-94.878907 60.015625h187.617188c33.050781 0 64.121093 12.871094 87.492187 36.238281 23.367188 23.371094 36.238282 54.441406 36.238282 87.492188v199.207031c0 10.835937-1.390626 21.460937-4.078126 31.671875 55.058594-3.203125 98.867188-49 98.867188-104.84375v-204.75c0-57.914062-47.117188-105.03125-105.03125-105.03125zm0 0"/><path d="m296.253906 90.949219h-206.226562c-49.722656 0-90.027344 40.304687-90.027344 90.023437v204.75c0 49.722656 40.304688 90.027344 90.027344 90.027344h206.226562c49.71875 0 90.023438-40.304688 90.023438-90.027344v-204.75c0-49.71875-40.304688-90.023437-90.023438-90.023437zm-137.261718 273.058593c-8.289063 0-15.007813-6.71875-15.007813-15.003906 0-8.515625-6.925781-15.441406-15.4375-15.441406-8.285156 0-15.003906-6.71875-15.003906-15.003906s6.71875-15.003906 15.003906-15.003906c25.058594 0 45.449219 20.386718 45.449219 45.449218 0 8.285156-6.71875 15.003906-15.003906 15.003906zm59.433593-6.222656c-8.285156 0-15.003906-6.71875-15.003906-15.003906 0-37.855469-30.796875-68.65625-68.652344-68.65625-8.289062 0-15.003906-6.714844-15.003906-15.003906 0-8.285156 6.714844-15.003906 15.003906-15.003906 54.402344 0 98.660157 44.261718 98.660157 98.664062 0 8.285156-6.714844 15.003906-15.003907 15.003906zm57.46875-8.320312c-8.289062 0-15.003906-6.714844-15.003906-15.003906 0-64.953126-52.847656-117.800782-117.804687-117.800782-8.285157 0-15.003907-6.71875-15.003907-15.003906s6.71875-15.003906 15.003907-15.003906c81.503906 0 147.8125 66.308594 147.8125 147.808594 0 8.289062-6.71875 15.003906-15.003907 15.003906zm0 0"/></svg>