<svg id="instagram" xmlns="http://www.w3.org/2000/svg" width="24.699" height="25.011" viewBox="0 0 24.699 25.011">
  <defs>
    <style>
      .cls-1 {
        fill: #a8dadc;
      }
    </style>
  </defs>
  <path id="Path_60" data-name="Path 60" class="cls-1" d="M25.084,7.353a9.238,9.238,0,0,0-.574-3.034A6.111,6.111,0,0,0,23.082,2.1,6.073,6.073,0,0,0,20.9.66a8.953,8.953,0,0,0-3-.581C16.576.015,16.157,0,12.8,0S9.029.015,7.711.073a8.932,8.932,0,0,0-3,.581A6.021,6.021,0,0,0,2.524,2.1,6.166,6.166,0,0,0,1.1,4.314,9.263,9.263,0,0,0,.526,7.348C.463,8.687.449,9.112.449,12.508s.015,3.821.072,5.155A9.238,9.238,0,0,0,1.1,20.7a6.175,6.175,0,0,0,1.428,2.218A6.073,6.073,0,0,0,4.71,24.356a8.954,8.954,0,0,0,3,.581c1.317.059,1.737.073,5.091.073s3.774-.015,5.091-.073a8.928,8.928,0,0,0,3-.581A6.358,6.358,0,0,0,24.5,20.7a9.269,9.269,0,0,0,.574-3.034c.058-1.334.072-1.759.072-5.155s0-3.821-.063-5.155ZM22.86,17.565a6.93,6.93,0,0,1-.425,2.321A4.124,4.124,0,0,1,20.09,22.26a6.723,6.723,0,0,1-2.292.43c-1.3.059-1.694.073-4.99.073s-3.692-.015-4.99-.073a6.7,6.7,0,0,1-2.292-.43,3.8,3.8,0,0,1-1.419-.933,3.894,3.894,0,0,1-.922-1.436A6.955,6.955,0,0,1,2.76,17.57c-.058-1.319-.072-1.715-.072-5.052S2.7,8.78,2.76,7.466a6.926,6.926,0,0,1,.425-2.321,3.806,3.806,0,0,1,.927-1.437A3.83,3.83,0,0,1,5.53,2.775a6.727,6.727,0,0,1,2.292-.43c1.3-.059,1.694-.073,4.99-.073s3.692.015,4.99.073a6.7,6.7,0,0,1,2.292.43,3.794,3.794,0,0,1,1.419.933,3.893,3.893,0,0,1,.922,1.437,6.958,6.958,0,0,1,.425,2.321c.058,1.319.072,1.715.072,5.052s-.015,3.728-.072,5.047Zm0,0" transform="translate(-0.449 0)"/>
  <path id="Path_61" data-name="Path 61" class="cls-1" d="M131.295,124.5a6.425,6.425,0,1,0,6.346,6.425A6.387,6.387,0,0,0,131.295,124.5Zm0,10.593a4.168,4.168,0,1,1,4.116-4.168A4.143,4.143,0,0,1,131.295,135.093Zm0,0" transform="translate(-118.941 -118.417)"/>
  <path id="Path_62" data-name="Path 62" class="cls-1" d="M365.413,90.1a1.482,1.482,0,1,1-1.482-1.5A1.491,1.491,0,0,1,365.413,90.1Zm0,0" transform="translate(-344.98 -84.273)"/>
</svg>
